<svg xmlns="http://www.w3.org/2000/svg" xmlns:xlink="http://www.w3.org/1999/xlink" version="1.1" style="" xml:space="preserve" width="490" height="490"><rect id="backgroundrect" width="100%" height="100%" x="0" y="0" fill="none" stroke="none"/>
















<g class="currentLayer" style=""><title>Layer 1</title><g id="svg_1" class="selected" fill="#ffffff" fill-opacity="1">
	<g id="svg_2" fill="#ffffff" fill-opacity="1">
		<g id="svg_3" fill="#ffffff" fill-opacity="1">
			<path d="M313.5483818422556,152.387 l-230.8,230.9 c-6.7,6.7 -6.7,17.6 0,24.3 c3.3,3.3 7.7,5 12.1,5 s8.8,-1.7000000000000002 12.1,-5 l230.8,-230.8 c6.7,-6.7 6.7,-17.6 0,-24.3 C331.1483818422556,145.687 320.2483818422556,145.687 313.5483818422556,152.387 z" id="svg_4" fill="#ffffff" fill-opacity="1"/>
			<path d="M431.1483818422556,191.887 c4.4,0 8.8,-1.7000000000000002 12.1,-5 l25.2,-25.2 c29.1,-29.1 29.1,-76.4 0,-105.4 l-34.4,-34.4 c-14.1,-14.1 -32.8,-21.8 -52.7,-21.8 c-19.9,0 -38.6,7.8 -52.7,21.8 l-25.2,25.2 c-6.7,6.7 -6.7,17.6 0,24.3 l115.6,115.6 C422.3483818422556,190.187 426.7483818422556,191.887 431.1483818422556,191.887 zM352.94838184225557,45.987 c7.6,-7.6 17.7,-11.8 28.5,-11.8 c10.7,0 20.9,4.2 28.5,11.8 l34.4,34.4 c15.7,15.7 15.7,41.2 0,56.9 l-13.2,13.2 l-91.4,-91.4 L352.94838184225557,45.987 z" id="svg_5" fill="#ffffff" fill-opacity="1"/>
			<path d="M162.8483818422556,467.187 l243.5,-243.5 c6.7,-6.7 6.7,-17.6 0,-24.3 s-17.6,-6.7 -24.3,0 l-239.3,239.5 l-105.6,14.2 l14.2,-105.6 l228.6,-228.6 c6.7,-6.7 6.7,-17.6 0,-24.3 c-6.7,-6.7 -17.6,-6.7 -24.3,0 l-232.6,232.8 c-2.7,2.7 -4.4,6.1 -4.9,9.8 l-18,133.6 c-0.7000000000000001,5.3 1.1,10.6 4.9,14.4 c3.2,3.2 7.6,5 12.1,5 c0.8,0 1.5,-0.1 2.3,-0.2 l133.6,-18 C156.74838184225558,471.587 160.24838184225558,469.887 162.8483818422556,467.187 z" id="svg_6" fill="#ffffff" fill-opacity="1"/>
		</g>
	</g>
	<g id="svg_7" fill="#ffffff" fill-opacity="1">
	</g>
	<g id="svg_8" fill="#ffffff" fill-opacity="1">
	</g>
	<g id="svg_9" fill="#ffffff" fill-opacity="1">
	</g>
	<g id="svg_10" fill="#ffffff" fill-opacity="1">
	</g>
	<g id="svg_11" fill="#ffffff" fill-opacity="1">
	</g>
	<g id="svg_12" fill="#ffffff" fill-opacity="1">
	</g>
	<g id="svg_13" fill="#ffffff" fill-opacity="1">
	</g>
	<g id="svg_14" fill="#ffffff" fill-opacity="1">
	</g>
	<g id="svg_15" fill="#ffffff" fill-opacity="1">
	</g>
	<g id="svg_16" fill="#ffffff" fill-opacity="1">
	</g>
	<g id="svg_17" fill="#ffffff" fill-opacity="1">
	</g>
	<g id="svg_18" fill="#ffffff" fill-opacity="1">
	</g>
	<g id="svg_19" fill="#ffffff" fill-opacity="1">
	</g>
	<g id="svg_20" fill="#ffffff" fill-opacity="1">
	</g>
	<g id="svg_21" fill="#ffffff" fill-opacity="1">
	</g>
</g><g id="svg_22" class="">
</g><g id="svg_23" class="">
</g><g id="svg_24" class="">
</g><g id="svg_25" class="">
</g><g id="svg_26" class="">
</g><g id="svg_27" class="">
</g><g id="svg_28" class="">
</g><g id="svg_29" class="">
</g><g id="svg_30" class="">
</g><g id="svg_31" class="">
</g><g id="svg_32" class="">
</g><g id="svg_33" class="">
</g><g id="svg_34" class="">
</g><g id="svg_35" class="">
</g><g id="svg_36" class="">
</g></g></svg>